<mxfile host="app.diagrams.net" modified="2024-03-25T10:28:58.877Z" agent="Mozilla/5.0 (Windows NT 10.0; Win64; x64) AppleWebKit/537.36 (KHTML, like Gecko) Chrome/122.0.0.0 Safari/537.36" version="24.1.0" etag="SFS8G7OT6B_l_r8cXdg6" type="github">
  <diagram name="PÃ¡gina-1" id="K9-ESIWyuGTOVblXJRoW">
    <mxGraphModel>
      <root>
        <mxCell id="0" />
        <mxCell id="1" parent="0" />
      </root>
    </mxGraphModel>
  </diagram>
</mxfile>
